<?xml version="1.0" encoding="utf-8"?>
<!-- Generator: Adobe Illustrator 15.0.0, SVG Export Plug-In . SVG Version: 6.00 Build 0)  -->
<!DOCTYPE svg PUBLIC "-//W3C//DTD SVG 1.1//EN" "http://www.w3.org/Graphics/SVG/1.1/DTD/svg11.dtd">
<svg version="1.1" id="Layer_1" xmlns="http://www.w3.org/2000/svg" xmlns:xlink="http://www.w3.org/1999/xlink" x="0px" y="0px"
	 width="1206.426px" height="532.868px" viewBox="0 0 1206.426 532.868" enable-background="new 0 0 1206.426 532.868"
	 xml:space="preserve">
<g>
	<g>
		<linearGradient id="SVGID_1_" gradientUnits="userSpaceOnUse" x1="742.041" y1="-85.7808" x2="539.5397" y2="454.2229">
			<stop  offset="0.1288" style="stop-color:#3A5AA8"/>
			<stop  offset="0.1965" style="stop-color:#4B5C9D"/>
			<stop  offset="0.3199" style="stop-color:#575E8A"/>
			<stop  offset="0.4435" style="stop-color:#565975"/>
			<stop  offset="0.5645" style="stop-color:#4F5061"/>
			<stop  offset="0.6823" style="stop-color:#42424C"/>
			<stop  offset="0.796" style="stop-color:#2F2F33"/>
			<stop  offset="0.904" style="stop-color:#121213"/>
			<stop  offset="1" style="stop-color:#000000"/>
		</linearGradient>
		<path fill-rule="evenodd" clip-rule="evenodd" fill="url(#SVGID_1_)" stroke="#020202" stroke-miterlimit="10" d="M694.638,40.954
			c1.157,1.831,0.037,2.906,0.528,4.515c-1.12-0.399-2.246-0.795-3.477-0.863C690.284,42.598,692.818,41.893,694.638,40.954z"/>
		<linearGradient id="SVGID_2_" gradientUnits="userSpaceOnUse" x1="731.6055" y1="-89.7002" x2="529.1013" y2="450.3109">
			<stop  offset="0.1288" style="stop-color:#3A5AA8"/>
			<stop  offset="0.1965" style="stop-color:#4B5C9D"/>
			<stop  offset="0.3199" style="stop-color:#575E8A"/>
			<stop  offset="0.4435" style="stop-color:#565975"/>
			<stop  offset="0.5645" style="stop-color:#4F5061"/>
			<stop  offset="0.6823" style="stop-color:#42424C"/>
			<stop  offset="0.796" style="stop-color:#2F2F33"/>
			<stop  offset="0.904" style="stop-color:#121213"/>
			<stop  offset="1" style="stop-color:#000000"/>
		</linearGradient>
		<path fill-rule="evenodd" clip-rule="evenodd" fill="url(#SVGID_2_)" stroke="#020202" stroke-miterlimit="10" d="M672.773,58.876
			c0.198-0.813,2.432-0.391,3.473-0.873c-0.354,1.683-0.027,2.834,1.397,4.515C675.105,64.057,674.578,59.54,672.773,58.876z"/>
		<linearGradient id="SVGID_3_" gradientUnits="userSpaceOnUse" x1="730.4023" y1="-89.9912" x2="528.0822" y2="449.5292">
			<stop  offset="0.1288" style="stop-color:#3A5AA8"/>
			<stop  offset="0.1965" style="stop-color:#4B5C9D"/>
			<stop  offset="0.3199" style="stop-color:#575E8A"/>
			<stop  offset="0.4435" style="stop-color:#565975"/>
			<stop  offset="0.5645" style="stop-color:#4F5061"/>
			<stop  offset="0.6823" style="stop-color:#42424C"/>
			<stop  offset="0.796" style="stop-color:#2F2F33"/>
			<stop  offset="0.904" style="stop-color:#121213"/>
			<stop  offset="1" style="stop-color:#000000"/>
		</linearGradient>
		<path fill-rule="evenodd" clip-rule="evenodd" fill="url(#SVGID_3_)" stroke="#020202" stroke-miterlimit="10" d="M670.175,64.958
			c0.351-0.173,0.696-0.348,1.042-0.521c0.865,1.023,2.761,2.645,1.92,3.82C671.807,68.412,670.01,66.538,670.175,64.958z"/>
		<linearGradient id="SVGID_4_" gradientUnits="userSpaceOnUse" x1="731.0586" y1="-89.8027" x2="528.669" y2="449.9029">
			<stop  offset="0.1288" style="stop-color:#3A5AA8"/>
			<stop  offset="0.1965" style="stop-color:#4B5C9D"/>
			<stop  offset="0.3199" style="stop-color:#575E8A"/>
			<stop  offset="0.4435" style="stop-color:#565975"/>
			<stop  offset="0.5645" style="stop-color:#4F5061"/>
			<stop  offset="0.6823" style="stop-color:#42424C"/>
			<stop  offset="0.796" style="stop-color:#2F2F33"/>
			<stop  offset="0.904" style="stop-color:#121213"/>
			<stop  offset="1" style="stop-color:#000000"/>
		</linearGradient>
		<path fill-rule="evenodd" clip-rule="evenodd" fill="url(#SVGID_4_)" stroke="#020202" stroke-miterlimit="10" d="M668.275,72.431
			c1.245-0.83,2.268-1.01,3.127-0.696c0.441,1.402-0.316,2.403-0.342,3.647C669.664,75.809,669.018,73.965,668.275,72.431z"/>
		<linearGradient id="SVGID_5_" gradientUnits="userSpaceOnUse" x1="1122.668" y1="56.9824" x2="920.2095" y2="596.8716">
			<stop  offset="0.1288" style="stop-color:#3A5AA8"/>
			<stop  offset="0.1965" style="stop-color:#4B5C9D"/>
			<stop  offset="0.3199" style="stop-color:#575E8A"/>
			<stop  offset="0.4435" style="stop-color:#565975"/>
			<stop  offset="0.5645" style="stop-color:#4F5061"/>
			<stop  offset="0.6823" style="stop-color:#42424C"/>
			<stop  offset="0.796" style="stop-color:#2F2F33"/>
			<stop  offset="0.904" style="stop-color:#121213"/>
			<stop  offset="1" style="stop-color:#000000"/>
		</linearGradient>
		<path fill-rule="evenodd" clip-rule="evenodd" fill="url(#SVGID_5_)" stroke="#020202" stroke-miterlimit="10" d="
			M1089.093,124.666c1.112-0.506,2.337,1.293,3.304,2.25c1.096,1.09,2.649,2.487,3.135,3.65c0.568,1.371-0.338,2.782,0.004,4.341
			c0.598,2.714,2.73,4.792,3.308,7.463c-5.042-1.752-9.569-9.795-7.661-15.276C1090.581,125.979,1089.93,125.049,1089.093,124.666z"
			/>
		<linearGradient id="SVGID_6_" gradientUnits="userSpaceOnUse" x1="1132.7422" y1="60.7783" x2="930.3206" y2="600.5692">
			<stop  offset="0.1288" style="stop-color:#3A5AA8"/>
			<stop  offset="0.1965" style="stop-color:#4B5C9D"/>
			<stop  offset="0.3199" style="stop-color:#575E8A"/>
			<stop  offset="0.4435" style="stop-color:#565975"/>
			<stop  offset="0.5645" style="stop-color:#4F5061"/>
			<stop  offset="0.6823" style="stop-color:#42424C"/>
			<stop  offset="0.796" style="stop-color:#2F2F33"/>
			<stop  offset="0.904" style="stop-color:#121213"/>
			<stop  offset="1" style="stop-color:#000000"/>
		</linearGradient>
		<path fill-rule="evenodd" clip-rule="evenodd" fill="url(#SVGID_6_)" stroke="#020202" stroke-miterlimit="10" d="
			M1099.182,135.249c4.964,1.987,4.136,9.083,6.45,12.848c-3.295-1.063-7.822-7.381-4.887-10.594
			C1100.231,136.746,1099.547,136.477,1099.182,135.249z"/>
		<linearGradient id="SVGID_7_" gradientUnits="userSpaceOnUse" x1="1139.5098" y1="63.292" x2="937.03" y2="603.2381">
			<stop  offset="0.1288" style="stop-color:#3A5AA8"/>
			<stop  offset="0.1965" style="stop-color:#4B5C9D"/>
			<stop  offset="0.3199" style="stop-color:#575E8A"/>
			<stop  offset="0.4435" style="stop-color:#565975"/>
			<stop  offset="0.5645" style="stop-color:#4F5061"/>
			<stop  offset="0.6823" style="stop-color:#42424C"/>
			<stop  offset="0.796" style="stop-color:#2F2F33"/>
			<stop  offset="0.904" style="stop-color:#121213"/>
			<stop  offset="1" style="stop-color:#000000"/>
		</linearGradient>
		<path fill-rule="evenodd" clip-rule="evenodd" fill="url(#SVGID_7_)" stroke="#020202" stroke-miterlimit="10" d="M1106.661,144.1
			c1.55,0.282,2.604,2.039,3.657,3.815c-0.205,0.704-1.333,1.1-2.258,1.564C1108.168,147.876,1107.959,146.164,1106.661,144.1z"/>
		<linearGradient id="SVGID_8_" gradientUnits="userSpaceOnUse" x1="1143.3154" y1="64.6836" x2="940.766" y2="604.8155">
			<stop  offset="0.1288" style="stop-color:#3A5AA8"/>
			<stop  offset="0.1965" style="stop-color:#4B5C9D"/>
			<stop  offset="0.3199" style="stop-color:#575E8A"/>
			<stop  offset="0.4435" style="stop-color:#565975"/>
			<stop  offset="0.5645" style="stop-color:#4F5061"/>
			<stop  offset="0.6823" style="stop-color:#42424C"/>
			<stop  offset="0.796" style="stop-color:#2F2F33"/>
			<stop  offset="0.904" style="stop-color:#121213"/>
			<stop  offset="1" style="stop-color:#000000"/>
		</linearGradient>
		<path fill-rule="evenodd" clip-rule="evenodd" fill="url(#SVGID_8_)" stroke="#020202" stroke-miterlimit="10" d="
			M1108.762,150.869c0.577-0.286,1.153-0.578,1.734-0.87c0.523,1.334,1.834,2.925,1.565,3.991
			C1110.838,153.336,1109.66,152.526,1108.762,150.869z"/>
		<linearGradient id="SVGID_9_" gradientUnits="userSpaceOnUse" x1="1149.5361" y1="67.0322" x2="947.0208" y2="607.0732">
			<stop  offset="0.1288" style="stop-color:#3A5AA8"/>
			<stop  offset="0.1965" style="stop-color:#4B5C9D"/>
			<stop  offset="0.3199" style="stop-color:#575E8A"/>
			<stop  offset="0.4435" style="stop-color:#565975"/>
			<stop  offset="0.5645" style="stop-color:#4F5061"/>
			<stop  offset="0.6823" style="stop-color:#42424C"/>
			<stop  offset="0.796" style="stop-color:#2F2F33"/>
			<stop  offset="0.904" style="stop-color:#121213"/>
			<stop  offset="1" style="stop-color:#000000"/>
		</linearGradient>
		<path fill-rule="evenodd" clip-rule="evenodd" fill="url(#SVGID_9_)" stroke="#020202" stroke-miterlimit="10" d="
			M1113.622,151.904c2.62,0.923,4.746,5.271,5.051,8.331C1115.641,158.701,1114.406,155.471,1113.622,151.904z"/>
		<linearGradient id="SVGID_10_" gradientUnits="userSpaceOnUse" x1="1158.2061" y1="70.2568" x2="955.6407" y2="610.431">
			<stop  offset="0.1288" style="stop-color:#3A5AA8"/>
			<stop  offset="0.1965" style="stop-color:#4B5C9D"/>
			<stop  offset="0.3199" style="stop-color:#575E8A"/>
			<stop  offset="0.4435" style="stop-color:#565975"/>
			<stop  offset="0.5645" style="stop-color:#4F5061"/>
			<stop  offset="0.6823" style="stop-color:#42424C"/>
			<stop  offset="0.796" style="stop-color:#2F2F33"/>
			<stop  offset="0.904" style="stop-color:#121213"/>
			<stop  offset="1" style="stop-color:#000000"/>
		</linearGradient>
		<path fill-rule="evenodd" clip-rule="evenodd" fill="url(#SVGID_10_)" stroke="#020202" stroke-miterlimit="10" d="
			M1120.411,160.235c2.184,1.255,4.078,3.401,5.568,6.767C1122.99,166.377,1121.106,163.516,1120.411,160.235z"/>
		<linearGradient id="SVGID_11_" gradientUnits="userSpaceOnUse" x1="1166.6162" y1="73.374" x2="963.9921" y2="613.7051">
			<stop  offset="0.1288" style="stop-color:#3A5AA8"/>
			<stop  offset="0.1965" style="stop-color:#4B5C9D"/>
			<stop  offset="0.3199" style="stop-color:#575E8A"/>
			<stop  offset="0.4435" style="stop-color:#565975"/>
			<stop  offset="0.5645" style="stop-color:#4F5061"/>
			<stop  offset="0.6823" style="stop-color:#42424C"/>
			<stop  offset="0.796" style="stop-color:#2F2F33"/>
			<stop  offset="0.904" style="stop-color:#121213"/>
			<stop  offset="1" style="stop-color:#000000"/>
		</linearGradient>
		<path fill-rule="evenodd" clip-rule="evenodd" fill="url(#SVGID_11_)" stroke="#020202" stroke-miterlimit="10" d="
			M1127.542,168.389c1.886,1.008,3.431,3.043,4.871,5.378C1130.347,173.325,1128.921,170.923,1127.542,168.389z"/>
		<linearGradient id="SVGID_12_" gradientUnits="userSpaceOnUse" x1="1232.707" y1="98.2549" x2="1030.2545" y2="638.1283">
			<stop  offset="0.1288" style="stop-color:#3A5AA8"/>
			<stop  offset="0.1965" style="stop-color:#4B5C9D"/>
			<stop  offset="0.3199" style="stop-color:#575E8A"/>
			<stop  offset="0.4435" style="stop-color:#565975"/>
			<stop  offset="0.5645" style="stop-color:#4F5061"/>
			<stop  offset="0.6823" style="stop-color:#42424C"/>
			<stop  offset="0.796" style="stop-color:#2F2F33"/>
			<stop  offset="0.904" style="stop-color:#121213"/>
			<stop  offset="1" style="stop-color:#000000"/>
		</linearGradient>
		<path fill-rule="evenodd" clip-rule="evenodd" fill="url(#SVGID_12_)" stroke="#020202" stroke-miterlimit="10" d="
			M1182.164,222.688c0.463-0.231,0.929-0.462,1.393-0.697c1.969,2.402,4.028,2.485,4.35,6.077
			C1185.311,228.322,1184.426,223.445,1182.164,222.688z"/>
		<linearGradient id="SVGID_13_" gradientUnits="userSpaceOnUse" x1="1237.3799" y1="100.0742" x2="1035.0153" y2="639.7132">
			<stop  offset="0.1288" style="stop-color:#3A5AA8"/>
			<stop  offset="0.1965" style="stop-color:#4B5C9D"/>
			<stop  offset="0.3199" style="stop-color:#575E8A"/>
			<stop  offset="0.4435" style="stop-color:#565975"/>
			<stop  offset="0.5645" style="stop-color:#4F5061"/>
			<stop  offset="0.6823" style="stop-color:#42424C"/>
			<stop  offset="0.796" style="stop-color:#2F2F33"/>
			<stop  offset="0.904" style="stop-color:#121213"/>
			<stop  offset="1" style="stop-color:#000000"/>
		</linearGradient>
		<path fill-rule="evenodd" clip-rule="evenodd" fill="url(#SVGID_13_)" stroke="#020202" stroke-miterlimit="10" d="
			M1185.649,230.497c0.198,3.206,4.444,5.041,3.834,7.645C1187.581,237.578,1181.358,231.214,1185.649,230.497z"/>
		<linearGradient id="SVGID_14_" gradientUnits="userSpaceOnUse" x1="935.1768" y1="-13.4043" x2="732.6837" y2="526.5771">
			<stop  offset="0.1288" style="stop-color:#3A5AA8"/>
			<stop  offset="0.1965" style="stop-color:#4B5C9D"/>
			<stop  offset="0.3199" style="stop-color:#575E8A"/>
			<stop  offset="0.4435" style="stop-color:#565975"/>
			<stop  offset="0.5645" style="stop-color:#4F5061"/>
			<stop  offset="0.6823" style="stop-color:#42424C"/>
			<stop  offset="0.796" style="stop-color:#2F2F33"/>
			<stop  offset="0.904" style="stop-color:#121213"/>
			<stop  offset="1" style="stop-color:#000000"/>
		</linearGradient>
		<path fill-rule="evenodd" clip-rule="evenodd" fill="url(#SVGID_14_)" stroke="#020202" stroke-miterlimit="10" d="
			M762.592,444.057c1.548-0.135,1.548,3.9-0.338,4.519C761.397,446.75,762.86,445.689,762.592,444.057z"/>
		<linearGradient id="SVGID_15_" gradientUnits="userSpaceOnUse" x1="1241.1348" y1="101.4062" x2="1038.6727" y2="641.3051">
			<stop  offset="0.1288" style="stop-color:#3A5AA8"/>
			<stop  offset="0.1965" style="stop-color:#4B5C9D"/>
			<stop  offset="0.3199" style="stop-color:#575E8A"/>
			<stop  offset="0.4435" style="stop-color:#565975"/>
			<stop  offset="0.5645" style="stop-color:#4F5061"/>
			<stop  offset="0.6823" style="stop-color:#42424C"/>
			<stop  offset="0.796" style="stop-color:#2F2F33"/>
			<stop  offset="0.904" style="stop-color:#121213"/>
			<stop  offset="1" style="stop-color:#000000"/>
		</linearGradient>
		<path fill-rule="evenodd" clip-rule="evenodd" fill="url(#SVGID_15_)" stroke="#020202" stroke-miterlimit="10" d="
			M1187.568,238.661c-0.058,2.126,5.108,5.537,2.967,8.51c-2.011-1.758-4.285-2.784-6.08-5.202
			C1184.619,240.506,1185.287,238.566,1187.568,238.661z"/>
		<linearGradient id="SVGID_16_" gradientUnits="userSpaceOnUse" x1="1241.3379" y1="101.4922" x2="1038.8812" y2="641.3767">
			<stop  offset="0.1288" style="stop-color:#3A5AA8"/>
			<stop  offset="0.1965" style="stop-color:#4B5C9D"/>
			<stop  offset="0.3199" style="stop-color:#575E8A"/>
			<stop  offset="0.4435" style="stop-color:#565975"/>
			<stop  offset="0.5645" style="stop-color:#4F5061"/>
			<stop  offset="0.6823" style="stop-color:#42424C"/>
			<stop  offset="0.796" style="stop-color:#2F2F33"/>
			<stop  offset="0.904" style="stop-color:#121213"/>
			<stop  offset="1" style="stop-color:#000000"/>
		</linearGradient>
		<path fill-rule="evenodd" clip-rule="evenodd" fill="url(#SVGID_16_)" stroke="#020202" stroke-miterlimit="10" d="
			M1176.814,248.408c3.904-1.355,6.01,1.514,9.206-1.573c0.984,0.329,0.478,0.847,0.873,1.733c3.097-0.519,8.073,8.085,3.485,8.679
			c0.758,3.337,1.392,6.636-0.681,9.037c1.509,4.35,0.479,6.812-3.811,8.865c-4.076,1.942-9.889,0.7-13.72,2.1
			c-3.794,1.379-5.665,5.354-9.553,5.223c-0.861-1.153,0.087-1.704-0.52-2.774c3.246,0.46,3.864-3.053,6.942-3.485
			c-0.631-1.878-1.747-2.3-2.608-3.474c1.112-1.655,3.683-2.829,4.679-4.519c1.372,0.808,2.513,2.324,4.524,1.207
			c-1.492-1.919-3.816-1.298-5.042-3.991c5.395-3.193,9.077-1.194,13.542-1.581c-0.262-0.379-0.777,0.028-1.214,0.182
			c0.226-5.421-5.536-4.528-8.178-6.769c1.063-0.573,1.542,0.597,2.78-0.523c0.875,2.019,2.428,1.993,3.827,2.432
			c1.507-1.554,2.781-2.687,4.515-1.401c0.894-0.38,0.799-1.084,1.385-1.566C1185.119,249.539,1179.635,252.997,1176.814,248.408z"
			/>
		<linearGradient id="SVGID_17_" gradientUnits="userSpaceOnUse" x1="974.1807" y1="1.3125" x2="771.723" y2="541.1997">
			<stop  offset="0.1288" style="stop-color:#3A5AA8"/>
			<stop  offset="0.1965" style="stop-color:#4B5C9D"/>
			<stop  offset="0.3199" style="stop-color:#575E8A"/>
			<stop  offset="0.4435" style="stop-color:#565975"/>
			<stop  offset="0.5645" style="stop-color:#4F5061"/>
			<stop  offset="0.6823" style="stop-color:#42424C"/>
			<stop  offset="0.796" style="stop-color:#2F2F33"/>
			<stop  offset="0.904" style="stop-color:#121213"/>
			<stop  offset="1" style="stop-color:#000000"/>
		</linearGradient>
		<path fill-rule="evenodd" clip-rule="evenodd" fill="url(#SVGID_17_)" stroke="#020202" stroke-miterlimit="10" d="
			M809.163,451.117c-4.812,4.111-6.104,7.611-11.625,11.484c2.323-4.44,6.735-8.185,9.367-12.521
			C807.909,449.65,808.685,449.939,809.163,451.117z"/>
		<linearGradient id="SVGID_18_" gradientUnits="userSpaceOnUse" x1="1085.6797" y1="43.1064" x2="883.1989" y2="583.0553">
			<stop  offset="0.1288" style="stop-color:#3A5AA8"/>
			<stop  offset="0.1965" style="stop-color:#4B5C9D"/>
			<stop  offset="0.3199" style="stop-color:#575E8A"/>
			<stop  offset="0.4435" style="stop-color:#565975"/>
			<stop  offset="0.5645" style="stop-color:#4F5061"/>
			<stop  offset="0.6823" style="stop-color:#42424C"/>
			<stop  offset="0.796" style="stop-color:#2F2F33"/>
			<stop  offset="0.904" style="stop-color:#121213"/>
			<stop  offset="1" style="stop-color:#000000"/>
		</linearGradient>
		<path fill-rule="evenodd" clip-rule="evenodd" fill="url(#SVGID_18_)" stroke="#020202" stroke-miterlimit="10" d="
			M1055.176,94.312c0.276-0.375,1.875-0.812,1.562-2.089c-0.857-0.904-1.938-1.153-2.78-2.081
			c4.007-0.675,10.425,9.839,7.655,14.407c2.556,2.956,2.09,5.517,3.491,8.682c0.893-4.744-2.432-9.106,1.894-12.683
			c5.564,5.239,4.685,15.264,8.539,22.225c0.355-4.223-2.019-10.037-3.32-16.153c9.079,3.258,6.945,15.569,12.016,22.219
			c-1.494-4.065-1.343-7.585-0.705-10.94c6.346,2.913,3.676,11.155,7.493,17.533c-2.623-0.055-5.494-3.656-6.266-6.419
			c-0.818,0.213-0.406,0.828-0.172,1.393c-2.134,0.433-4.672-1.967-5.042-3.99c-3.699-0.477-6.614-3.322-9.565-6.067
			c-3.459-0.61-6.195-3.411-9.036-5.892c-1.779,0.907-5.898-1.333-6.608-3.641c-0.319-0.782-1.309,0.46-1.911,0.525
			c-8.195-6.114-17.015-10.357-25.735-14.905c-0.342-2.045,1.104-3.494,1.211-5.388c0.799-0.662,1.318-0.488,1.565,0.52
			c1.313-3.803,0.939-8.636,3.114-12.859c2.166,2.265,2.093,6.285,3.83,9.376c1.322-2.104-1.178-6.186-0.362-9.382
			c-0.68-0.853-1.59-1.016-2.257-1.907c-0.675-1.188,0.601-1.732,0.342-2.779c5.742,3.338,11.101,7.829,16.349,12.66
			c-3.022,1.352-2.501,5.287-5.376,5.738c-0.176,0.908,0.388,2.06-0.346,2.781c3.381,2.677,1.599,9.665,5.92,10.066
			c-2.525-5.353-6.431-12.945,0.329-16.676c3.74,8.848,2.677,17.247,8.193,25.003c1.832-0.361,0.271-1.838,0.869-2.607
			c-1.442-0.22-1.221-0.402-2.089-1.561c0.956-1.031,1.388-2.24,2.253-3.306c-0.539-0.698-1.78,0.722-2.603,0.873
			c-0.346-1.29-2.432-5.086-0.532-7.118C1055.535,97.441,1055.23,96.005,1055.176,94.312z M1046.831,89.806
			c0.688-1.668-0.399-3.37,1.211-4.517c-2.637-0.488-4.28-3.975-6.783-4.856C1042.577,83.374,1042.876,90.356,1046.831,89.806z
			 M1038.676,96.942c1.355-0.043,0.671-2.837-0.523-1.912C1038.062,95.579,1038.16,96.189,1038.676,96.942z M1041.464,101.625
			c-0.346-1.08,1.08-1.569,0.865-2.608C1041.464,99.524,1039.76,101.231,1041.464,101.625z"/>
		<linearGradient id="SVGID_19_" gradientUnits="userSpaceOnUse" x1="891.3389" y1="-29.7637" x2="688.8761" y2="510.137">
			<stop  offset="0.1288" style="stop-color:#3A5AA8"/>
			<stop  offset="0.1965" style="stop-color:#4B5C9D"/>
			<stop  offset="0.3199" style="stop-color:#575E8A"/>
			<stop  offset="0.4435" style="stop-color:#565975"/>
			<stop  offset="0.5645" style="stop-color:#4F5061"/>
			<stop  offset="0.6823" style="stop-color:#42424C"/>
			<stop  offset="0.796" style="stop-color:#2F2F33"/>
			<stop  offset="0.904" style="stop-color:#121213"/>
			<stop  offset="1" style="stop-color:#000000"/>
		</linearGradient>
		<path fill-rule="evenodd" clip-rule="evenodd" fill="url(#SVGID_19_)" stroke="#020202" stroke-miterlimit="10" d="
			M933.819,20.474c19.194,4.371,39.152,13.991,57.709,23.199c-0.285,3.72,0.976,10.959,6.088,9.546
			c1.412-1.631,0.211-4.065-0.704-5.729c6.953-0.657,3.509,11.136,10.619,10.753c0.621-0.564,0.561-1.357,1.73-1.739
			c-0.582-1.732-1.666-1.954-2.436-3.121c1.306,0.134,2.291,1.235,3.477,1.732c0.033,5.392,6.007,10.876,9.046,6.761
			c2.13,1.31,1.725,3.738,3.13,5.382c2.707,3.17,8.275,0.537,10.435,6.063c-1.039,3.229-1.244,6.73-3.98,9.39
			c-1.372-3.825-0.222-8.758-5.585-12.85c1.029,8.73,8.123,19.479,2.126,25.884c-2.938-0.453-5.388-2.37-7.826-4.336
			c-3.279-0.569-6.303-1.938-8.864-4.679c-3.481,0.902-5.957-1.235-8.518-3.113c-3.68-0.83-7.11-2.405-10.258-4.849
			c-0.717-1.009,0.676-1.324-0.346-2.434c-0.824,0.209-0.412,0.83-0.174,1.39c-6.939-0.894-12.22-6.782-19.64-6.227
			c-2.579-1.826-5.614-2.268-7.995-4.68c-3.604,0.091-6.834-0.918-9.732-2.94c-6.591-1.066-13.297-1.796-18.948-5.705
			c-3.724,0.477-6.739-1.18-9.902-2.417c-3.626,1.746-5.788-0.746-9.033-1.554c-1.311-0.325-3.313,0.856-4.001-1.036
			c-2.486,1.379-4.348-1.027-6.953-1.726c-4.72-1.277-8.748,0.416-11.64-3.287c-1.977,1.938-5.125,1.289-6.944,0.01
			c-4.639,2.059-7.769-0.431-11.3-1.722c-1.269,0.919-1.858-0.218-3.126,0.699c-8.346-2.761-18.791,0.814-26.584-3.611
			c-2.405,1.606-6.336,0.594-8.857-0.335c-3.748,1.407-6.911,1.061-9.902,0.188c-0.807,0.406-1.623,0.812-2.43,1.219
			c-5.219-2.011-11.666-0.302-16.855-2.41c-7.365,2.426-13.919,2.416-19.978,0.897c-4.374,1.974-6.155,0.973-9.553,0.882
			c-7.162,2.408-13.827,3.299-19.801,2.112c-5.14,2.413-9.054,1.122-14.407,4.187c-0.792-0.233-1.204-1.623-1.747-2.602
			c-0.734,0.622-0.111,1.699,0.007,2.606c-5.927,2.445-11.228,3.011-17.02,5.06c-1.688-2.729-0.699-4.609-2.438-6.598
			c-1.515,1.716,2.002,5.104,0.878,6.948c-4.576,1.765-9.026,5.06-12.328,4.883c0.213-1.809-2.031-4.275-2.958-2.429
			c-0.601,0.765,0.964,2.249,1.219,3.297c-2.765,0.081-4.086,1.21-6.944,1.748c-5.564-7.363-12.159-11.611-18.261-17.346
			c-0.453,0.621-1.677,0.986-1.737,1.739c-0.024-2.615,5.668-5.836,8.325-8.524c0.731,0.694,1.569,1.1,2.087,2.428
			c-1.399,1.028-1.598-1.565-2.78-1.211c-1.631,1.582-2.738,3.333-4.51,4.869c0.511,1.662,1.836,0.861,2.61,1.736
			c3.452,3.543,6.427,8.531,10.784,9.365c0.281,1.188,1.109,0.719,1.389,1.911c-0.407-1.937,2.442-3.456,3.991-2.441
			c0.638-3.457-3.929-5.314-5.396-8.154c3.361,1.206,5.48,6.17,10.254,3.111c0.419,0.813-0.084,1.321,0.7,2.257
			c1.219-0.849,0.84-2.232,1.383-3.306c-4.531-6.683-10.096-10.266-15.306-14.917c3.529-2.983,6.208,3.908,8.872,6.417
			c3.345,0.836,5.702,8.747,9.561,5.196c1.808,2.425,4.486,0.604,6.258,1.209c-5.142-5.442-10.06-11.556-15.315-16.655
			c-0.926-0.55-1.117-0.104-1.908,0.521c-1.107-3.403,2.287-1.771,4.166-2.086c-0.919,2.764,3.031,2.056,3.656,5.553
			c1.228-0.558-0.329-2.039,0.865-2.608c1.435-0.476,3.798-0.329,4.688-1.917c-1.83-1.887-5.231-3.262-6.262-4.681
			c1.862-0.667,3.049,0.696,5.038-0.355c-0.754,1.718,0.302,2.918,1.741,4.34c2.968-1.125,5.967-2.104,5.031-5.564
			c-0.483-1.154-1.66-0.225-2.436-0.518c-0.601-3.134,3.204-1.931,5.562-2.788c2.958-1.075,6.059-4.431,8.855-3.14
			c1.64-0.611,2.509-1.48,3.643-2.263c2.651,1.112,4.982-1.048,8.682-1.749c2.448-0.465,4.968,0.787,7.121,0.34
			c1.389-0.295,2.465-1.56,3.82-1.92c6.376-1.697,13.173-0.616,19.978-3.501c1.906,0.931,3.979,1.372,6.253,1.209
			c0.387,1.095,0.131,2.852-1.385,2.432c0.869,1.151,1.747,2.28,2.435,3.992c1.66-0.752,4.733-1.04,6.95-0.877
			c-0.718-3.734-3.106-5.11-6.262-3.815c0.09-0.547-0.01-1.157-0.52-1.909c4.42-3.864,9.277,0.785,12.671-3.318
			c2.507,2.241,7.112,2.132,10.248-0.36c2.237,2.078,8.758,3.908,10.248-0.362c1.6,1.019,3.716,0.44,4.87,2.774
			c5.461-4.407,9.868,1.565,15.809-1.413c1.017-0.435-1.562-2.062,0.172-2.259c1.352,4.354,4.759,2.517,6.781,4.854
			c0.555-1.419,2.154-0.693,3.473-1.74c1.037-0.62-0.285-2.022-0.701-3.125c3.444,1.312,6.158,5.297,11.126,3.979
			c1.318-0.817-1.751-3.089-0.181-3.819c1.996,3.859,4.304,6.79,8.171,5.025c0.714-1.209,0.651-2.68,1.557-3.825
			c2.036-0.904,2.415,3.188,3.655,4.686c2.326,0.847,4.371,2.526,7.471,1.032c-0.087-1.544-0.201-2.895-1.569-3.991
			c2.241-2.653,5.512,3.668,4.87,5.377c1.684,0.169,3.294,0.545,5.041,0.513c0.478-1.313,0.47-4.986-1.919-4.688
			c3.962-2.247,5.804,1.19,6.957,6.072c1.631,1.313,3.439-0.433,4.345-0.875c0.681-0.735-1.302-0.629-1.392-1.907
			c-0.024-0.686,1.733-0.774,0.865-1.741c1.795-0.471,3.324-0.134,4.692,0.688c1.211,3.174,0.812,5.382,3.479,6.945
			c-0.447,2.648-2.385,4.805-4.328,6.955c0.625-2.819-1.948-1.771-3.48-2.601c-0.732,0.914,0.04,2.33,0.526,3.647
			c1.047,0.375,2.012,0.066,3.127-0.7c-1.058,7.656-6.174,13.964-7.443,21.553c5.463-10.921,9.499-22.314,15.073-33.201
			c-0.302-0.84-0.747-1.263-1.398-1.04c4.643-0.025,11.045,2.199,16.164,3.625c-1.54,1.61,0.511,4.414,0.701,6.598
			c2.755,1.91,5.371-1.468,4.515-3.997c-0.61-1.386-4.548-0.972-3.304-2.255c2.488,1.238,5.396,1.187,7.818,2.593
			c0.054,3.373,1.366,8.377,5.223,7.812C936.974,25.291,935.816,21.059,933.819,20.474z M911.575,14.25
			c0.569,2.066,1.981,1.597,2.608,3.474c1.174-0.385,0.453-1.398,1.215-1.916C914.254,14.901,913.08,14.079,911.575,14.25z
			 M722.934,22.846c4.16,2.523,8.691,6.191,10.782,11.975c0.919,1.144-0.954-4.193-1.919-4.688
			c-0.437-3.135-0.567-6.172-2.265-9.728c-1.056,0.256-1.6-1.015-2.784-0.344C727.678,22.497,724.012,21.739,722.934,22.846z
			 M741.514,21.782c-0.902-0.767-1.586-2.207-2.261-3.646c-1.979-0.729-4.783,1.038-7.292,1.922
			C734.467,22.684,737.391,24.031,741.514,21.782z M742.547,17.784c0.004,0.772-0.522,1.367,0.355,2.432
			c1.248-0.051,1.693-1.159,2.606,0.865c1.55-1.129,0.409-3.145,3.291-3.824c-1.194-1.038-2.945-0.414-4.341-0.865
			C744.933,17.346,743.24,18.038,742.547,17.784z M714.438,39.71c2.546,1.249,3.209,2.861,5.225,5.202
			c1.429-0.389,0.085-1.703,1.037-2.257c1.389,0.466,2.459,1.878,4.341,0.862c-2.459-3.343-5.099-6.135-7.483-9.715
			C715.035,35.278,714.29,37.346,714.438,39.71z M760.096,18.106c-0.972-4.386-5.043-3.629-7.992-1.204
			c0.289,0.58,0.581,1.158,0.875,1.737c1.704-0.298,2.865,0.158,4.167-0.354C756.508,20.298,760.325,19.407,760.096,18.106z
			 M762.529,17.757c3.267-1.421,5.063,1.604,8.516-0.36c-1.063-1.462-2.003-3.272-3.136-4.512c-1.784,0.618-3.069,0.549-4.169,1.221
			c-0.88-1.181-0.062-2.519-1.742-1.734C762.395,14.237,760.688,15.407,762.529,17.757z M770.516,13.749
			c1.764,3.983,5.487,2.068,8.688,1.726c-0.135-1.205-0.226-2.393-1.05-3.82C775.862,12.026,772.196,12.375,770.516,13.749z
			 M761.677,27.312c0.147-2.363,1.269-4.399,0.335-7.125C760.838,22.021,761.22,25.901,761.677,27.312z M747.609,33.932
			c1.126-1.067,0.562-4.472-1.05-4.688C746.646,31.191,747.227,31.713,747.609,33.932z M800.747,16.835
			c1.289-2.134-1.737-3.948-2.79-6.424c-1.466,1.606-2.989,1.021-4.86,1.567C795.166,15.047,798.222,15.152,800.747,16.835z
			 M800.744,12.491c0.938,0.943,2.107,1.203,2.956,2.426c2.035-0.605,3.455,0.626,5.903-1.221c-0.664-1.652-0.639-2.715-2.09-3.298
			c-3.488,2.111-5.304,0.025-6.26-1.206C801.08,10.289,800.685,11.315,800.744,12.491z M784.439,31.101
			c0.114-2.375,0.767-6.108-1.06-8.16C783.359,25.345,783.067,29.196,784.439,31.101z M813.421,11.778
			c0.207,1.477,3.35,1.028,4.169,1.387c-1.442,1.351-0.915,3.361-0.855,5.21c1.597-1.102,1.68-2.591,3.813-2.783
			c0.571-1.258-0.799-3.159-1.046-4.689c-1.154,1.129-1.376-0.5-2.086-0.694C815.859,11.527,814.104,10.364,813.421,11.778z
			 M824.715,14.369c-0.081-0.22-0.155-0.436,0.174-0.521c2.378,0.4,3.972,3.145,6.779,2.249c-0.081-1.938-1.729-3.954-2.787-5.555
			c-1.544,1.166-2.208-0.329-3.818,1.046C826.512,12.863,823.245,14.05,824.715,14.369z M839.142,17.131
			c-0.242-0.565-0.651-1.18,0.174-1.392c0.814,0.146,1.251,1.438,2.257,1.04c0.185-1.483-0.71-3.322-1.747-5.209
			c-2.555-0.158-5.067-0.422-7.818,0.01C833.396,16.419,836.551,15.922,839.142,17.131z M850.264,19.374
			c-0.141-1.155,1.514-0.645,2.076-1.044c-1.516-0.62,0.041-1.528,0-1.74c-1.2-6.279-4.651-2.675-8-5.546
			c-2.9,1.065-0.07,4.027-0.512,5.907c1.311,0.797,0.636-1.992,1.562-1.217c0.992,2.811,2.928,2.806,4.695,3.291
			C849.892,19.121,849.835,19.503,850.264,19.374z M844.183,21.117c-0.007-0.966-0.301-2.024-0.181-2.952
			C842.781,18.55,843.268,20.98,844.183,21.117z M844.022,32.932c0.193-3.413,0.804-8.222-0.359-11.12
			C843.729,25.31,842.419,29.886,844.022,32.932z M859.297,22.659c2.07-2.397,3.83-4.902,2.771-8.339
			c-2.02,1.253-1.705,2.012-3.649,1.392C859.58,18.317,859.889,20.641,859.297,22.659z M870.414,20.563
			c-0.709-1.008-0.478-1.704,0.691-2.089c0.321,0.493,0.52,1.345,1.042,1.216c0.309-1.186-1.314-1.837-2.089-2.431
			c-1.168,0.486-3.016,0.022-4.86,0.703C866.355,20.564,868.498,20.227,870.414,20.563z M877.877,18.118
			c0.124,0.428-0.114,0.735-0.346,1.044c-1.479,0.299-2.052,2.575-1.207,4.519c1.925-0.327,1.013-1.592,2.431-2.088
			c0.229,0.463,0.465,0.924,0.695,1.387c0.561-2.033,0.664-4.218,0.685-6.427c-2.817,2.389-3.872-0.543-6.253,0.529
			c1.17,0.694,0.977,2.2,1.741,2.603C876.732,18.816,876.608,17.856,877.877,18.118z M857.051,32.046
			c-0.095-1.578,1.385-2.63,0.865-4.347C857.002,28.759,856.298,31.397,857.051,32.046z M881.013,22.632
			c1.178-0.479,1.462-1.252,1.037-2.262c-0.536,0.167-0.869-0.277-1.389-0.173C881.684,21.31,880.295,21.623,881.013,22.632z
			 M886.75,23.664c1.321-0.523,0.905-1.625,0.865-2.605c-0.618,0.408-0.964-0.008-1.566,0.348
			C885.851,22.019,886.272,22.832,886.75,23.664z M871.295,30.981c1.171-0.218,1.788-2.071,0.692-2.084
			C871.979,29.668,870.998,30.113,871.295,30.981z M853.072,44.904c0.932-0.654,1.22-1.526,0.868-2.606
			C853.015,42.954,852.723,43.823,853.072,44.904z M908.12,26.418c-0.89-1.293-0.718-0.952-1.219-2.432
			c-1.105,0.714-1.36-1.147-2.435-0.518C905.657,24.531,906.361,27.064,908.12,26.418z M916.984,31.093
			c1.289-0.731,2.034-1.639,1.557-2.956C916.928,28.759,916.053,29.628,916.984,31.093z M911.431,37.356
			c1.19-0.861,2.25-1.763,2.432-2.958C912.873,35.325,911.309,36.063,911.431,37.356z M942.692,28.625
			c1.054-0.275,1.882,0.136,2.952-0.177c-0.979-1.483,1.385-1.854,0.516-3.304C944.353,25.068,941.817,26.889,942.692,28.625z
			 M930.198,37.504c1.153,0.471,3.152-2.278,2.776-2.261C931.879,36.365,930.49,35.892,930.198,37.504z M953.99,33.824
			c1.285-0.159,0.799-0.365,2.085-1.046c-0.545-1.575-1.747-1.144-2.78-1.213C953.097,32.174,953.513,32.988,953.99,33.824z
			 M965.981,37.801c-2.113-0.852-0.651-1.909-1.393-3.647c-0.63-0.715-1.281-1.382-2.261-1.038
			C962.258,35.251,963.737,40.188,965.981,37.801z M973.106,40.744c0.795,0.513,1.664,0.797,2.608,0.865
			c-0.895-1.378-1.623-3.231-2.958-3.297C972.807,39.099,972.814,39.875,973.106,40.744z M987.014,47.675
			c-1.306-1.87-2.781-3.238-3.831-5.901c-0.35,0.175-0.691,0.348-1.043,0.521C981.733,44.853,983.652,49.649,987.014,47.675z
			 M989.3,67.823c0.316-3.102,1.937-8.779,0.329-10.599C988.962,60.569,988.6,64.021,989.3,67.823z M996.582,59.824
			c-0.23-1.255-0.667-2.321-1.911-2.954C994.49,57.674,995.791,59.297,996.582,59.824z M997.463,65.03
			c0.841-0.299,1.261-0.735,1.039-1.388c-0.536,0.164-0.873-0.278-1.393-0.173C997.24,63.993,996.952,64.382,997.463,65.03z
			 M988.962,73.207c2.104-0.939-0.244-3.359,0.164-4.863c-0.47,0.254-0.845,0.22-1.211,0.173
			C988.089,70.022,988.422,71.582,988.962,73.207z M990.692,70.602c1.288-0.637,2.314-1.355,1.737-2.611
			C991.012,67.669,989.958,69.314,990.692,70.602z M1007.366,67.448c-0.495-0.472,0.122-4.231-2.089-4.164
			C1005.505,64.975,1005.776,66.536,1007.366,67.448z M1007.021,68.493c0.608,0.809-0.24,2.584,0.873,2.604
			c0.486-1.59,1.198-3.256,1.383-4.168C1008.165,67.92,1008.742,68.124,1007.021,68.493z M1018.145,73.343
			c-0.349-0.484-1.168-1.616-0.175-2.955c-1.361-1.44-2.328-4.041-4.005-4.509C1015.192,68.258,1014.867,73.798,1018.145,73.343z
			 M1011.379,80.646C1008.98,82.49,1012.885,83.784,1011.379,80.646L1011.379,80.646z"/>
		<linearGradient id="SVGID_20_" gradientUnits="userSpaceOnUse" x1="740.2373" y1="-86.4551" x2="537.7424" y2="453.5312">
			<stop  offset="0.1288" style="stop-color:#3A5AA8"/>
			<stop  offset="0.1965" style="stop-color:#4B5C9D"/>
			<stop  offset="0.3199" style="stop-color:#575E8A"/>
			<stop  offset="0.4435" style="stop-color:#565975"/>
			<stop  offset="0.5645" style="stop-color:#4F5061"/>
			<stop  offset="0.6823" style="stop-color:#42424C"/>
			<stop  offset="0.796" style="stop-color:#2F2F33"/>
			<stop  offset="0.904" style="stop-color:#121213"/>
			<stop  offset="1" style="stop-color:#000000"/>
		</linearGradient>
		<path fill-rule="evenodd" clip-rule="evenodd" fill="url(#SVGID_20_)" stroke="#020202" stroke-miterlimit="10" d="
			M692.414,66.843c-1.598-0.416-2.274-3.616-3.657-4.688c-0.479,1.122,1.228,3.351,1.919,5.56c-4.757,2.72-7.678-0.112-11.291-0.857
			c0.054-1.91-1.09-2.923-1.396-4.515c1.759-0.355,3.032,0.758,4.341,1.736c1.413-0.886,3.75-1.463,4.341-2.613
			c-3.196-4.596-7.319-6.418-10.783-10.236c1.187-0.382,0.915-1.24,2.257-1.569c0.809,1.137-0.799,1.475,0.006,2.607
			c5.576,3.838,10.292,10.258,17.56,9.011c1.259,1.022,0.058,2.682,0.869,2.604C695.981,64.347,694.725,66.093,692.414,66.843z"/>
		<linearGradient id="SVGID_21_" gradientUnits="userSpaceOnUse" x1="937.4072" y1="-12.5449" x2="734.9233" y2="527.4123">
			<stop  offset="0.1288" style="stop-color:#3A5AA8"/>
			<stop  offset="0.1965" style="stop-color:#4B5C9D"/>
			<stop  offset="0.3199" style="stop-color:#575E8A"/>
			<stop  offset="0.4435" style="stop-color:#565975"/>
			<stop  offset="0.5645" style="stop-color:#4F5061"/>
			<stop  offset="0.6823" style="stop-color:#42424C"/>
			<stop  offset="0.796" style="stop-color:#2F2F33"/>
			<stop  offset="0.904" style="stop-color:#121213"/>
			<stop  offset="1" style="stop-color:#000000"/>
		</linearGradient>
		<path fill-rule="evenodd" clip-rule="evenodd" fill="url(#SVGID_21_)" stroke="#020202" stroke-miterlimit="10" d="
			M771.089,429.804c-0.392,4.075-1.708,9.15-2.764,13.554c-0.279,1.178,0.207,3.302-1.037,3.13c1.325-3.327,0.107-8.996,0.507-12.86
			C767.938,432.202,768.65,429.031,771.089,429.804z"/>
		<linearGradient id="SVGID_22_" gradientUnits="userSpaceOnUse" x1="952.1133" y1="-6.9814" x2="749.6483" y2="532.9254">
			<stop  offset="0.1288" style="stop-color:#3A5AA8"/>
			<stop  offset="0.1965" style="stop-color:#4B5C9D"/>
			<stop  offset="0.3199" style="stop-color:#575E8A"/>
			<stop  offset="0.4435" style="stop-color:#565975"/>
			<stop  offset="0.5645" style="stop-color:#4F5061"/>
			<stop  offset="0.6823" style="stop-color:#42424C"/>
			<stop  offset="0.796" style="stop-color:#2F2F33"/>
			<stop  offset="0.904" style="stop-color:#121213"/>
			<stop  offset="1" style="stop-color:#000000"/>
		</linearGradient>
		<path fill-rule="evenodd" clip-rule="evenodd" fill="url(#SVGID_22_)" stroke="#020202" stroke-miterlimit="10" d="
			M761.05,456.571c0.71,0.812-0.386,1.029-0.521,1.565c2.285,0.896,2.977-1.686,5.388,0.337c0.433-3.5,4.214-3.74,6.243-5.743
			c3.79,0.504,6.909,3.038,10.777,3.288c0.663-0.749,1.65-2.265,2.948-1.91c0.235,0.46,0.466,0.923,0.697,1.383
			c-3.527,2.109-2.884,5.602-6.064,7.826c-0.963-0.886-2.1-1.248-2.958-2.43c0.074-1.412,2.003-1.354,2.432-2.083
			c0.107-1.74-1.335-1.047-2.267-1.912c-0.799,1.479-2.208,2.124-3.645,1.396c-0.375,1.422-1.166,2.698-0.342,4.519
			c3.67-0.011,6.965,1.097,10.255,2.245c0.727,1.686,1.016,3.229,0,4.343c-1.315,0.188-2.006-1.513-3.472-0.865
			c-3.479,4.424-4.086,11.076-0.671,16.852c-0.333-3.873,3.418-6.386,3.633-10.076c1.311-0.51,1.936-0.312,2.78-1.401
			c0.281,1.254-1.684,1.764,0.004,3.478c1.076,0.61,1.153-1.215,2.086-0.174c-3.082,1.995-10.529,7.661-5.545,13.206
			c-0.828,1.945-0.754,4.193-1.73,6.081c0.594,1.141,1.455,1.441,1.915,2.958c-4.757,3.623-9.193,7.363-8.315,12.863
			c1.909,2.524,2.479,4.419-1.039,5.733c-1.886-2.171-4.506-2.105-6.434-4.165c-11.398,6.45-19.389,2.629-25.547-6.739
			c0.107-3.533,1.939-6.491,1.379-10.248c1.237-2.771,3.622-5.165,2.592-8.691c5.445-9.284,6.464-20.039,13.86-28.676
			c0.788-0.792-1.445-0.248-0.694-1.393C760.137,457.812,759.869,456.95,761.05,456.571z"/>
	</g>
	<g>
		<path d="M151.486,164.851c10.934,2.733,16.4,12.451,15.488,23.992c1.52,1.215,2.127,2.733,2.127,4.252
			c0,6.377-10.326,14.881-21.867,17.311c-6.376-8.2,3.645-8.504,0.607-11.845c-30.672,0-46.161,6.074-72.583,24.903v4.556
			l12.755,9.11c13.059,9.111,25.814,13.363,34.925,23.385l3.341-2.126c8.807,9.415,13.97,20.955,13.363,28.852l-1.822,24.295
			l-5.163-1.214c-8.807,12.147-26.421,23.08-44.339,30.977c-9.415-3.948-14.578-2.43-14.274,5.771
			c-14.577,5.466-27.636,8.199-33.103,8.199c-4.252,0-11.541-4.859-18.829-11.844c-12.148-2.43-14.881-9.719-13.363-15.185
			c-3.948-5.467-6.681-10.63-6.681-13.971c0-7.592,5.163-12.147,10.022-15.792c5.163,4.252,13.059,14.881,18.525,14.881
			c14.273,0,42.517-8.199,61.954-25.206v-3.037c-7.592-7.289-13.666-20.651-19.133-17.007c-8.2-10.934-11.844-15.488-17.311-11.541
			c-4.251-3.645-12.451-10.933-13.97-19.437c-1.822-9.718-5.467-20.955-5.163-27.332c1.822-24.903,51.021-49.807,89.59-49.807
			c7.592,0,17.615,0.304,25.207,1.215L151.486,164.851z M70.4,341.602l-10.629,4.556l1.519,2.126l9.111-3.037V341.602z
			 M97.733,205.242c-10.933,3.341-22.17,7.896-22.474,12.755l22.474-12.451V205.242z M156.953,210.102l7.594-5.163
			c0,3.645-0.912,3.948-4.859,7.289L156.953,210.102z"/>
		<path d="M286.027,247.76l-2.43-2.126c-20.652,12.147-43.125,28.547-52.541,22.474c-3.643,6.073-10.629,23.991-12.146,23.991
			c-1.52,0-0.607-7.896-3.949-2.125c-3.34,6.073-10.324,18.222-9.717,27.028c0,1.822,4.857-1.215,4.25,0.607l-13.666,39.784
			c-0.91,3.037-2.43,10.022-2.732,13.97c-2.734,0-19.438-6.073-23.688-12.147c-4.859-7.289-6.379-17.918-6.379-23.992
			c9.719-30.065,32.496-83.212,48.895-118.441c-4.555-3.34-9.109-7.592-11.539-10.629c2.125-2.733,3.947-6.985,4.555-10.63
			l-7.592-1.821c2.125-3.037,5.77-5.163,8.199-6.682v-4.859c28.852,1.822,25.814-33.71,37.355-33.71c3.037,0,4.555,0.607,6.68,1.215
			c4.557,1.519,8.504,3.948,13.668,4.556c2.43,6.073,5.465,11.54,6.68,18.222c9.416,0.304,18.83,0.607,29.764,2.43
			c16.096,2.429,25.812,8.503,25.812,25.813C325.506,221.945,309.41,231.36,286.027,247.76z M211.621,313.054
			c-1.215,0-3.037,1.822-3.947,0.911c0.91-4.251,4.25-11.844,6.072-12.451C217.998,299.691,213.139,309.106,211.621,313.054z
			 M256.871,251.404h-3.947c-3.949,0-7.289,4.251-7.896,8.503c7.289-2.126,15.793-6.378,22.17-10.021
			C263.553,245.938,261.73,251.404,256.871,251.404z M265.982,246.545c2.43,0,2.732,3.037,5.162,1.519l5.164-3.037
			C274.789,243.508,268.412,242.9,265.982,246.545z M279.041,240.471c-1.215,0.911,1.215,3.037,4.252,0.911
			c6.074-3.645,17.008-8.807,14.578-12.147L279.041,240.471z M303.338,225.286c-1.52,0.911-3.037,1.215-3.645,3.037
			c-0.912,2.43,6.68,0.607,6.68-2.733C306.373,224.679,304.855,224.375,303.338,225.286z"/>
		<path d="M480.086,198.257c-27.637,12.452-55.881,13.363-82.605,20.955c-3.34,5.467-7.592,12.452-12.756,20.651
			c12.148-1.215,37.355-11.54,46.162-11.54c8.809,0,11.541,3.037,17.918,13.97c-1.215,3.341,0.305,6.378,3.342,7.896l-2.127,6.681
			c-18.525,3.037-63.775,10.326-78.961,17.007c-7.895,3.341-14.881,36.748-15.184,43.732c9.414,6.985,23.688,3.948,32.494,1.822
			l1.822,3.037c2.127,0,4.859-1.822,4.859-3.645c4.557-0.607,6.074,6.682,10.326,5.467c19.74-5.467,43.125-13.363,58.309-18.222
			c0.912-0.304,2.127-0.607,2.43,0.304c0.607,1.519-3.947,3.645-6.377,4.858l-20.65,7.593c1.822,1.215,5.162,3.341,7.287,4.556
			c0.912,0.304,0.305,0.911-0.607,1.215c-15.184,5.163-34.014,10.325-51.02,14.577c4.555,2.126,11.236,2.126,17.006,0.607
			c12.148-3.341,28.852-9.111,43.732-14.273c0.912-0.304,3.037-1.215,1.52,1.822c-1.822,3.037-4.252,5.162-8.504,6.681
			c-19.74,7.593-45.252,16.703-63.777,16.703c-35.531,0-60.738-16.096-59.523-60.435c0.607-22.474,19.133-50.11,41.303-96.575
			c-1.52-7.593-1.215-14.882,4.252-23.081c15.184,1.822,23.992-21.562,34.621-21.562c5.77,0,21.865,4.556,25.814,5.771
			c0.303,6.681-1.215,13.666-5.467,21.865c5.162,1.215,19.74,2.733,26.422,2.733l2.732,5.771c1.52,0,4.252-1.822,7.592-1.822
			c3.342,0,10.631,3.037,14.883,3.645c0.607,0,1.215,0.607,0.607,1.215c-12.148,10.933-20.652,4.252-18.525,13.362
			c9.109-3.645,16.703-5.771,25.205-9.718c1.215-0.607,3.037-2.733,3.342-0.911C488.59,194.006,483.123,195.827,480.086,198.257z
			 M351.623,304.247c-1.215,5.467-1.52,9.414,0.91,11.236l1.52-8.199L351.623,304.247z M356.482,286.937l-3.342,11.236l2.127,2.733
			l4.252-14.273L356.482,286.937z M357.09,284.811h0.303c1.822-2.43,4.252-4.859,5.467-7.896c-3.947-0.304-5.162,1.519-5.77,4.556
			V284.811z M374.4,240.774l3.947-0.607l3.037-6.985C379.26,233.182,375.311,237.434,374.4,240.774z M388.369,220.427l-5.162,8.504
			l3.947-0.911l5.164-8.504L388.369,220.427z M427.85,311.535c-8.502,6.378-19.133,10.63-22.777,4.859
			c13.971-3.037,27.941-7.592,39.178-12.147c1.215-0.607,1.518,0.304,0.91,1.215C441.516,309.714,433.621,311.839,427.85,311.535z
			 M456.398,188.843l0.91,3.645l5.467-2.43C462.471,188.539,458.221,188.235,456.398,188.843z"/>
		<path d="M662.299,251.404c-2.125,2.125-5.77,3.644-8.199,3.34l4.555-4.858c-1.822-0.607-4.859-0.304-6.682,1.519
			c-1.822,1.821-6.682,5.77-12.754,10.629l5.465,1.215c-33.102,28.547-73.797,53.754-109.025,69.242l-2.734,16.704
			c-5.77-3.037-10.324,0-16.703,0c-18.525,0-24.6-20.348-31.279-29.155c1.215-3.341,2.125-7.289,2.43-11.54l7.592-3.341
			c4.252-2.126,7.289-3.948,9.414-9.111c4.859-11.236,6.984-20.955,10.629-34.317l-1.215-4.556
			c4.252-13.666,13.666-23.992,14.273-35.836c0.305-8.503-10.932-13.97-10.629-21.562c0.305-7.896,15.186-11.844,23.082-16.096
			l3.037,2.126c14.273-15.488,15.184-46.77,31.279-46.77c2.734,0,13.666,17.918,15.186,21.866c1.215,4.859-1.52,10.63-2.734,17.007
			c10.326,0,21.562-3.036,37.051-0.911c-3.035,5.771,6.074,4.252,7.896,0c3.037,2.43,11.541,1.519,18.223,3.645
			c27.939,8.504,29.459,31.889,30.977,44.947C676.27,233.485,668.98,245.026,662.299,251.404z M536.873,324.595l-0.607,3.037
			l8.504-4.556l1.518-3.645L536.873,324.595z M563.902,226.197l-0.305,9.414c-1.215,1.519-3.645,2.43-5.467,4.556v0.304
			c4.859-3.948,4.252,9.719,1.52,9.719c-1.52-0.304-2.734-0.911-3.949-1.822v0.304c1.215,1.822,1.822,3.948,2.127,6.377
			c-0.305,6.985-6.379,15.489-7.896,27.029c10.934-6.682,35.531-16.399,50.717-29.458c1.215,1.214,2.43,1.214,4.555,1.821
			l-1.82-4.251l2.732-1.822c1.215,2.126,2.43,2.43,3.037,2.43c3.037,0,8.807-4.859,19.436-17.312
			c7.896,2.733,23.689-17.614,21.867-28.851C599.131,204.635,580.301,221.034,563.902,226.197z M549.932,320.95l15.488-7.593
			c-1.215-0.607-2.125-3.34-0.607-5.162v-0.304c-4.555,2.43-12.148,9.414-14.881,12.755V320.95z M623.426,276.003
			c-5.467,0-10.326,3.037-16.4,6.985c-6.68,4.252-17.311,10.325-27.027,16.399c-0.305,1.822-1.215,3.948-3.342,5.163
			c-2.125-2.126-5.467-1.215-8.807,1.822c1.822,0,4.859,0.911,6.984,2.126c17.311-10.63,34.621-23.385,48.592-32.192V276.003z
			 M631.93,266.893l-10.021,5.466c1.82,1.215,4.25,1.822,6.377,0l6.377-4.555L631.93,266.893z M659.869,243.204l-2.43,2.733
			l3.949,0.911l2.428-2.733L659.869,243.204z"/>
		<path d="M928.941,233.485c-6.682-2.125-9.717,12.148-11.236,15.489h-4.859c0,3.645,4.252,4.251,6.984,5.162
			c-1.518,3.341-4.857,4.252-8.502,3.948l-8.504,26.726l3.645-1.822l6.377-19.437l1.822,4.859l-4.252,15.185
			c-1.518,5.467-4.252,9.718-7.289,9.718c-4.25,0-3.34,5.467-4.555,9.415l-2.125-2.733l-1.822,1.822
			c1.518,3.037,4.555,6.985,4.555,10.629c0,6.985-7.592,20.044-12.756,31.889l-5.162-4.556c-0.607,0.607-1.518,0.911-2.43,1.215
			c-0.91,0.304-1.822,0.304-3.037,0.304c-11.541,0-24.902-19.437-24.902-30.37c0-12.451,24.902-57.095,35.836-81.086l-0.912-2.43
			c-8.807,5.467-30.369,12.451-31.279,21.866l-53.754,45.857c-5.164-6.984-8.809-1.822-15.186-1.822
			c-7.896,0-12.451-14.881-15.488-24.902c4.555-14.882,12.148-33.407,19.436-50.414l-3.037-6.073
			c-12.146,10.021-23.383,25.51-31.887,38.873c-12.756,20.651-30.066,52.539-43.125,76.228c-3.037-1.215-0.607-6.378,1.518-10.63
			c-3.34-0.911-5.77,4.252-7.895,10.022c-2.127,6.073-1.52,12.755,0.303,17.007c-1.518,1.215-3.037,1.822-4.859,1.822
			c-12.451,0-29.762-22.17-29.762-28.852c0-7.288,25.51-47.68,39.48-69.546c15.791-25.207,31.281-48.592,51.932-64.08
			c5.77-8.807,18.223-26.422,29.154-26.422c17.008,0,23.082,21.259,30.066,38.266c-1.518,7.896-0.607,19.437,2.43,26.422
			c9.719-6.682,21.865-17.007,31.584-22.474c2.127-1.215,4.859,0.607,6.377,3.037c2.43-1.822,4.252-5.163,2.734-8.503
			c16.096-10.022,36.443-20.348,43.125-20.348c5.77,0,13.059,5.162,19.436,10.021c5.164,12.147,10.934,22.17,10.934,32.191
			C938.053,223.768,934.408,235.308,928.941,233.485z M716.051,306.069l-3.34,5.77l1.822,1.822l3.34-6.377L716.051,306.069z
			 M717.57,302.729l1.822,1.519c1.518-3.037,3.037-4.252,0.91-5.771L717.57,302.729z M894.928,286.329
			c0,1.519,0.305,3.037,0.305,3.645c2.43-1.822,3.947-7.593,1.215-8.808C895.535,282.077,895.232,284.203,894.928,286.329z
			 M910.113,252.619h-0.305c-4.252,6.073-10.021,13.97-10.021,23.384c0,1.822,0.305,3.341,0.607,5.163h0.303L910.113,252.619z
			 M914.973,235.611l-3.342,9.415c3.342-2.43,6.074-5.467,5.164-6.985L914.973,235.611z M918.92,233.485l3.645-9.414
			c-4.252,0-4.555,3.948-6.984,9.414H918.92z M923.475,248.975h-3.34c1.215-2.43,4.252-5.467,5.77-6.074L923.475,248.975z"/>
		<path d="M1119.053,281.47c1.518,3.037-0.607,6.378-3.949,6.378l-2.125-3.948c-2.43,0.607-4.252,1.822-2.43,5.163
			c-3.34,0-8.807,2.732-8.807,6.073c0,4.556-5.164,3.037-8.809,3.948c-3.34,3.341-6.072,7.289-9.717,12.147l-3.342-3.036
			c-7.896,4.858-3.645,8.199-11.844,12.147c-4.859,2.43-10.629,2.126-16.096,3.341c-0.91,0.911,2.732,2.126,2.43,3.341l-5.467,1.822
			l-8.504-5.163c-4.859,3.037-1.215,10.021-7.289,12.147c-7.287,2.43-13.059,4.556-21.561,7.289c-5.164-5.163-11.238-3.341-15.49,0
			c-10.629-6.682-23.688-16.703-31.584-23.385c-7.289-5.771-9.717-20.651-9.717-35.229c0-73.798,92.02-121.479,114.797-121.479
			c8.807,0,13.059,5.467,22.473,12.755c0,13.971,14.881,25.207,27.332,33.711c11.844,7.896,15.793,23.081,15.793,39.48
			C1135.148,258.996,1129.986,272.662,1119.053,281.47z M1086.254,219.212c-0.912-2.733-1.52-4.556-2.734-3.341
			s-2.43,1.822-3.34,1.822c-2.127,0-3.342-2.43-3.645-2.43c-16.096,0-44.035,18.525-56.791,38.569
			c-14.578,6.985-24.6,24.296-31.281,45.251c6.984-0.607,16.096-1.215,21.562-3.341l54.666-22.777
			c6.074-2.429,19.133-8.807,24.902-16.096l13.666-17.918L1086.254,219.212z M1010.938,253.226
			c-4.557-2.732-10.023,1.519-10.631,4.859c0,1.822,0.912,3.341,3.645,3.645L1010.938,253.226z M1012.152,337.653
			c-1.215-1.822-3.342-3.341-5.467-3.341c-1.215,0.304-2.43,0.607-3.645,1.822L1012.152,337.653z M1051.936,316.395
			c0,0.911-1.215,3.037-0.607,3.645c1.215,0.911,3.645,0,5.162-0.607C1056.49,317.306,1054.973,316.395,1051.936,316.395z
			 M1068.336,307.588c-5.467,2.733-7.594,4.251-7.289,7.592l8.807-4.555L1068.336,307.588z M1076.838,300.299l-4.859,5.163
			l1.215,3.341l6.074-3.645C1078.357,304.247,1077.75,300.906,1076.838,300.299z"/>
	</g>
</g>
</svg>
